<svg width="84" height="84" viewBox="0 0 84 84" fill="none" xmlns="http://www.w3.org/2000/svg">
<path d="M56.2845 41.3239L82.0363 57.9553C83.1772 58.6921 83.8662 59.9574 83.8662 61.3154V66.136C83.8662 67.8856 82.7292 69.4321 81.0593 69.9539L64.5695 75.107C64.1833 75.2277 63.781 75.2891 63.3764 75.2891H23.0644C22.6012 75.2891 22.1415 75.2086 21.7059 75.0513L2.64142 68.1669C1.05631 67.5945 0 66.09 0 64.4047V60.0654C0 58.7115 0.684878 57.4494 1.82005 56.7116L9.46148 51.7447C11.1539 50.6446 13.4008 50.9779 14.7011 52.5219L20.0297 58.8496C21.3546 60.423 23.6568 60.735 25.3527 59.5711L51.8511 41.386C53.1812 40.4732 54.9294 40.4487 56.2845 41.3239Z" fill="white" fill-opacity="0.4"/>
<path d="M20.4189 17.0918C20.6938 17.1726 20.9791 17.2129 21.2656 17.2129H62.7441C63.0102 17.2129 63.2755 17.1782 63.5322 17.1084L82 12.0811V67.5449L62.6104 72.8232H21.4121L2 67.1133V11.6729L20.4189 17.0918Z" stroke="white" stroke-width="4" stroke-linejoin="round"/>
<path d="M20.5332 15.2148V73.9678" stroke="white" stroke-width="4" stroke-linejoin="round"/>
<path d="M64.2213 15.2148V73.9678" stroke="white" stroke-width="4" stroke-linejoin="round"/>
<path d="M34.6492 34.6092C37.1452 34.6092 39.1686 32.5858 39.1686 30.0898C39.1686 27.5937 37.1452 25.5703 34.6492 25.5703C32.1532 25.5703 30.1297 27.5937 30.1297 30.0898C30.1297 32.5858 32.1532 34.6092 34.6492 34.6092Z" fill="white" fill-opacity="0.6"/>
</svg>
