<svg width="84" height="84" viewBox="0 0 84 84" fill="none" xmlns="http://www.w3.org/2000/svg">
<path d="M52.1137 41.9411L67.8402 52.0978C68.981 52.8346 69.6701 54.0999 69.6701 55.458V56.9368C69.6701 58.6863 68.5331 60.2329 66.8632 60.7547L57.0569 63.8192C56.6707 63.9399 56.2684 64.0012 55.8638 64.0012H29.5455C29.0822 64.0012 28.6226 63.9208 28.1869 63.7635L16.6414 59.5943C15.0563 59.0219 14 57.5174 14 55.8321V54.6256C14 53.2717 14.6849 52.0097 15.82 51.2718L19.2843 49.0201C20.9767 47.92 23.2236 48.2533 24.5239 49.7973L26.5107 52.1567C27.8357 53.7301 30.1378 54.0421 31.8338 52.8782L47.6802 42.0032C49.0103 41.0904 50.7586 41.0659 52.1137 41.9411Z" fill="white" fill-opacity="0.4"/>
<path d="M27.8824 24.0837L15.2822 20.3772C14.6417 20.1888 14 20.6689 14 21.3365V58.8204C14 59.264 14.2922 59.6546 14.7178 59.7797L27.8824 63.6523C27.9741 63.6793 28.0691 63.6929 28.1646 63.6929H55.6046C55.6933 63.6929 55.7817 63.6811 55.8672 63.6578L69.0215 60.0776C69.4568 59.9591 69.7589 59.5639 69.7589 59.1127V21.6169C69.7589 20.9577 69.1323 20.4789 68.4963 20.652L55.8672 24.0892C55.7817 24.1125 55.6933 24.1243 55.6046 24.1243H28.1646C28.0691 24.1243 27.9741 24.1107 27.8824 24.0837Z" stroke="white" stroke-width="2" stroke-linejoin="round"/>
<path d="M27.6299 24.125V63.125" stroke="white" stroke-width="2" stroke-linejoin="round"/>
<path d="M56.6299 24.125V63.125" stroke="white" stroke-width="2" stroke-linejoin="round"/>
<path d="M37 37C38.6569 37 40 35.6569 40 34C40 32.3431 38.6569 31 37 31C35.3431 31 34 32.3431 34 34C34 35.6569 35.3431 37 37 37Z" fill="white" fill-opacity="0.6"/>
</svg>
