<svg width="84" height="84" viewBox="0 0 84 84" fill="none" xmlns="http://www.w3.org/2000/svg">
<path d="M57.3889 41.9349L78.6702 55.6787C80.6667 56.9681 81.8726 59.1824 81.8726 61.559V62.0666C81.8726 65.1283 79.8828 67.8348 76.9605 68.748L63.9595 72.8107C63.2836 73.0219 62.5797 73.1293 61.8716 73.1293H24.5245C23.7139 73.1293 22.9095 72.9885 22.147 72.7132L6.62255 67.1073C3.84857 66.1056 2 63.4727 2 60.5234V60.3625C2 57.9931 3.19856 55.7846 5.18516 54.4933L8.64756 52.2428C11.6093 50.3177 15.5413 50.901 17.8167 53.6029L19.2138 55.2619C21.5324 58.0152 25.5611 58.5613 28.5289 56.5246L49.6304 42.0436C51.9581 40.4462 55.0174 40.4033 57.3889 41.9349Z" fill="white" fill-opacity="0.4"/>
<path d="M4 14.0098C4 13.3422 4.64177 12.8615 5.28223 13.0498L21.1367 17.7139C21.5948 17.8486 22.0703 17.917 22.5479 17.917H61.4834C61.9267 17.917 62.3681 17.8586 62.7959 17.7422L78.7373 13.4033C79.3733 13.2302 80 13.709 80 14.3682V64.9189C80 65.37 79.6979 65.7653 79.2627 65.8838L61.7451 70.6514C61.6598 70.6746 61.5718 70.6865 61.4834 70.6865H22.5479C22.4524 70.6865 22.3572 70.6734 22.2656 70.6465L4.71777 65.4844C4.29221 65.3592 4 64.968 4 64.5244V14.0098Z" stroke="white" stroke-width="4" stroke-linejoin="round"/>
<path d="M21.5555 15.918V71.8716" stroke="white" stroke-width="4" stroke-linejoin="round"/>
<path d="M63.1631 15.918V71.8716" stroke="white" stroke-width="4" stroke-linejoin="round"/>
<path d="M34.9992 34.3895C37.3764 34.3895 39.3035 32.4625 39.3035 30.0854C39.3035 27.7083 37.3764 25.7812 34.9992 25.7812C32.6221 25.7812 30.695 27.7083 30.695 30.0854C30.695 32.4625 32.6221 34.3895 34.9992 34.3895Z" fill="white" fill-opacity="0.6"/>
</svg>
