<svg width="84" height="84" viewBox="0 0 84 84" fill="none" xmlns="http://www.w3.org/2000/svg">
<rect x="7" y="32" width="70" height="44" rx="8" fill="white" fill-opacity="0.2"/>
<rect x="7" y="32" width="70" height="44" rx="8" stroke="white" stroke-width="4"/>
<path d="M17 26C17 21.5817 20.5817 18 25 18H59C63.4183 18 67 21.5817 67 26V32H17V26Z" stroke="white" stroke-width="4"/>
<path d="M27 17C27 12.5817 30.5817 9 35 9H49C53.4183 9 57 12.5817 57 17V18H27V17Z" stroke="white" stroke-width="4"/>
<path d="M27 50C27 54.4183 30.5817 58 35 58H49C53.4183 58 57 54.4183 57 50" stroke="white" stroke-width="4" stroke-linecap="round"/>
</svg>
