<svg width="88" height="88" viewBox="0 0 88 88" fill="none" xmlns="http://www.w3.org/2000/svg">
<g filter="url(#filter0_dd_918_2846)">
<rect x="12" y="10" width="64" height="64" rx="32" fill="white"/>
<rect x="10" y="8" width="68" height="68" rx="34" stroke="white" stroke-width="4"/>
<path d="M44 40C47.3137 40 50 37.3137 50 34C50 30.6863 47.3137 28 44 28C40.6863 28 38 30.6863 38 34C38 37.3137 40.6863 40 44 40Z" fill="#7171B3"/>
<path d="M44 42C36.201 42 32 46.701 32 52.5C32 54.433 33.567 56 37.5 56H50.5C54.433 56 56 54.433 56 52.5C56 46.701 51.799 42 44 42Z" fill="#7171B3"/>
</g>
<defs>
<filter id="filter0_dd_918_2846" x="0" y="0" width="88" height="88" filterUnits="userSpaceOnUse" color-interpolation-filters="sRGB">
<feFlood flood-opacity="0" result="BackgroundImageFix"/>
<feColorMatrix in="SourceAlpha" type="matrix" values="0 0 0 0 0 0 0 0 0 0 0 0 0 0 0 0 0 0 127 0" result="hardAlpha"/>
<feOffset/>
<feGaussianBlur stdDeviation="2"/>
<feColorMatrix type="matrix" values="0 0 0 0 0.196078 0 0 0 0 0.196078 0 0 0 0 0.321569 0 0 0 0.08 0"/>
<feBlend mode="normal" in2="BackgroundImageFix" result="effect1_dropShadow_918_2846"/>
<feColorMatrix in="SourceAlpha" type="matrix" values="0 0 0 0 0 0 0 0 0 0 0 0 0 0 0 0 0 0 127 0" result="hardAlpha"/>
<feOffset dy="2"/>
<feGaussianBlur stdDeviation="4"/>
<feColorMatrix type="matrix" values="0 0 0 0 0.196078 0 0 0 0 0.196078 0 0 0 0 0.321569 0 0 0 0.16 0"/>
<feBlend mode="normal" in2="effect1_dropShadow_918_2846" result="effect2_dropShadow_918_2846"/>
<feBlend mode="normal" in="SourceGraphic" in2="effect2_dropShadow_918_2846" result="shape"/>
</filter>
</defs>
</svg>
