<svg width="32" height="32" viewBox="0 0 32 32" fill="none" xmlns="http://www.w3.org/2000/svg">
<path fill-rule="evenodd" clip-rule="evenodd" d="M4.10063 4.6875C4.10062 3.58293 4.99606 2.6875 6.10062 2.6875L13.1717 2.6875C14.2763 2.6875 15.1717 3.58293 15.1717 4.6875L15.1717 11.7586C15.1717 12.8631 14.2763 13.7586 13.1717 13.7586C12.0671 13.7586 11.1717 12.8631 11.1717 11.7586L11.1717 9.51592L10.3433 10.3444C7.21907 13.4685 7.21907 18.5339 10.3433 21.6581C13.4675 24.7822 18.5328 24.7822 21.657 21.6581C24.7812 18.5339 24.7812 13.4685 21.657 10.3443C20.8759 9.5633 20.8759 8.29697 21.657 7.51592C22.438 6.73487 23.7044 6.73487 24.4854 7.51592C29.1717 12.2022 29.1717 19.8002 24.4854 24.4865C19.7991 29.1728 12.2011 29.1728 7.51484 24.4865C2.82855 19.8002 2.82855 12.2022 7.51484 7.51593L8.34327 6.6875L6.10063 6.6875C4.99606 6.6875 4.10063 5.79207 4.10063 4.6875Z" fill="white"/>
</svg>
