<svg width="32" height="32" viewBox="0 0 32 32" fill="none" xmlns="http://www.w3.org/2000/svg">
<path fill-rule="evenodd" clip-rule="evenodd" d="M13.8106 4.75745C13.9219 4.31232 14.3219 4 14.7808 4H17.2192C17.6781 4 18.0781 4.31232 18.1894 4.75745L18.5843 6.33709C19.4418 6.56585 20.254 6.9057 21.0045 7.34033L22.4016 6.50207C22.7951 6.26599 23.2988 6.328 23.6232 6.65246L25.3475 8.3767C25.6719 8.70117 25.7339 9.20483 25.4978 9.59826L24.6596 10.9954C25.0942 11.7458 25.4341 12.558 25.6628 13.4156L27.2425 13.8105C27.6877 13.9218 28 14.3218 28 14.7806V17.2191C28 17.678 27.6877 18.0779 27.2425 18.1893L25.6629 18.5842C25.4341 19.4417 25.0942 20.254 24.6596 21.0044L25.4978 22.4014C25.7338 22.7949 25.6718 23.2986 25.3474 23.623L23.6231 25.3473C23.2987 25.6717 22.795 25.7337 22.4015 25.4977L21.0045 24.6595C20.2541 25.0941 19.4419 25.434 18.5843 25.6628L18.1894 27.2425C18.0781 27.6876 17.6781 27.9999 17.2192 27.9999H14.7808C14.3219 27.9999 13.9219 27.6876 13.8106 27.2425L13.4157 25.6628C12.5581 25.434 11.7459 25.0942 10.9954 24.6595L9.59851 25.4976C9.20503 25.7337 8.70137 25.6717 8.37691 25.3472L6.65266 23.623C6.3282 23.2985 6.26619 22.7948 6.50227 22.4014L7.34044 21.0044C6.90581 20.254 6.56592 19.4418 6.33716 18.5843L4.75746 18.1894C4.3123 18.0781 4 17.6781 4 17.2192V14.7808C4 14.3219 4.3123 13.9219 4.75746 13.8106L6.33713 13.4157C6.56589 12.5582 6.90576 11.746 7.34039 10.9955L6.50212 9.59838C6.26604 9.20489 6.32805 8.70123 6.65251 8.37677L8.37675 6.65252C8.70122 6.32806 9.20488 6.26605 9.59836 6.50213L10.9955 7.34039C11.7459 6.9057 12.5582 6.56585 13.4157 6.33709L13.8106 4.75745ZM20 15.9999C20 18.2091 18.2091 19.9999 16 19.9999C13.7909 19.9999 12 18.2091 12 15.9999C12 13.7908 13.7909 11.9999 16 11.9999C18.2091 11.9999 20 13.7908 20 15.9999Z" fill="white"/>
</svg>
